<svg viewBox="0 0 9.99951 10" xmlns="http://www.w3.org/2000/svg" xmlns:xlink="http://www.w3.org/1999/xlink" width="9.999512" height="10.000000" fill="none" customFrame="#000000">
	<defs>
		<clipPath id="clipPath_0">
			<rect width="9.999377" height="9.999999" x="0.000000" y="-0.000000" fill="rgb(255,255,255)" />
		</clipPath>
	</defs>
	<g id="Group 1000001826">
		<g id="Calque_1" clip-path="url(#clipPath_0)" customFrame="url(#clipPath_0)">
			<rect id="Calque_1" width="9.999377" height="9.999999" x="0.000000" y="-0.000000" />
			<path id="Vector" d="M5 5C5 7.7613 7.23807 10 9.99938 10C9.99938 7.23869 7.76131 5 5 5Z" fill="rgb(255,255,255)" fill-rule="nonzero" />
			<path id="Vector" d="M9.99938 -4.76837e-07C7.23807 -4.76837e-07 5 2.23807 5 5C7.76131 5 9.99938 2.76193 9.99938 -4.76837e-07Z" fill="rgb(255,255,255)" fill-rule="nonzero" />
			<path id="Vector" d="M0 10C2.76131 10 5 7.7613 5 5C2.23807 5 0 7.23807 0 10Z" fill="rgb(255,255,255)" fill-rule="nonzero" />
			<path id="Vector" d="M0 -4.76837e-07C0 2.76131 2.23807 5 5 5C5 2.23807 2.76131 -4.76837e-07 0 -4.76837e-07Z" fill="rgb(255,255,255)" fill-rule="nonzero" />
		</g>
	</g>
</svg>
