<svg viewBox="0 0 104.636 30" xmlns="http://www.w3.org/2000/svg" xmlns:xlink="http://www.w3.org/1999/xlink" width="104.636230" height="30.000000" fill="none" customFrame="#000000">
	<defs>
		<clipPath id="clipPath_1">
			<rect width="29.860250" height="30.000000" x="0.000000" y="0.000000" fill="rgb(255,255,255)" />
		</clipPath>
		<linearGradient id="paint_linear_0" x1="0" x2="29.8598499" y1="15.1671705" y2="15.1671705" gradientUnits="userSpaceOnUse">
			<stop stop-color="rgb(255,50,63)" offset="0" stop-opacity="1" />
			<stop stop-color="rgb(255,55,228)" offset="1" stop-opacity="1" />
		</linearGradient>
	</defs>
	<g id="Group 1000001854">
		<g id="Group 1000001856">
			<g id="Group 1000001868">
				<g id="Group 1000001821">
					<g id="Layer_1" clip-path="url(#clipPath_1)" customFrame="url(#clipPath_1)">
						<rect id="Layer_1" width="29.860250" height="30.000000" x="0.000000" y="0.000000" fill="rgb(255,255,255)" fill-opacity="0" />
						<path id="Vector" d="M28.0184 20.7058C25.0629 17.9572 20.1714 13.3117 18.7857 12.0491C17.5179 10.8937 17.0942 8.66885 18.3974 8.19985C22.0753 6.8765 22.7209 10.3319 25.8926 9.19039C31.8284 7.05422 28.6913 -1.63862 23.3797 0.272957C19.2347 1.7646 20.8938 5.87148 17.7331 7.00892C15.1497 7.93876 13.6083 7.15268 12.5445 6.31281C12.4809 6.26248 12.4188 6.21215 12.3586 6.16182C12.3586 6.16182 7.70981 1.93163 7.70981 1.93131C2.98215 -2.23597 -3.1068 4.10901 1.83638 8.81292C4.76102 11.5961 10.7427 17.0226 12.1281 18.2852C13.3958 19.4406 13.8195 21.6655 12.5163 22.1345C8.83846 23.4578 8.19282 20.0024 5.02117 21.144C-0.91462 23.2801 2.22248 31.973 7.53403 30.0614C11.679 28.5697 10.02 24.4629 13.1806 23.3254C16.3416 22.188 17.9428 23.6186 19.0177 24.5742C19.0562 24.6085 22.684 28.0558 22.7228 28.0882C26.6428 31.3432 33.031 25.3675 28.0181 20.7055L28.0184 20.7058Z" fill="url(#paint_linear_0)" fill-rule="nonzero" />
					</g>
				</g>
				<path id="chitti" d="M75.1488 7.95112L75.1488 4.77913L78.7888 4.77913L78.7888 7.95112L75.1488 7.95112ZM100.996 4.77913L100.996 7.95112L104.636 7.95112L104.636 4.77913L100.996 4.77913ZM60.1478 5.06512L60.1478 23.3951L63.3978 23.3951L63.3978 16.2451Q63.3978 15.2571 63.7878 14.5291C64.0478 14.0265 64.4118 13.6451 64.8798 13.3851C65.3478 13.1078 65.8938 12.9691 66.5178 12.9691C67.0378 12.9691 67.4625 13.0731 67.7918 13.2811Q67.9298 13.357 68.0477 13.4568L68.0478 13.4568Q68.3739 13.7328 68.5458 14.1911Q68.8058 14.8151 68.8058 15.8031L68.8058 23.3951L72.0558 23.3951L72.0558 15.6471C72.0558 14.4685 71.8911 13.4978 71.5618 12.7351Q71.1877 11.8492 70.5304 11.3061L70.5303 11.306Q70.3196 11.132 70.0798 10.9931Q69.0918 10.4211 67.5578 10.4211Q66.3876 10.4211 65.3989 10.8448L65.3987 10.8449L65.3986 10.8449L65.3984 10.845Q65.0914 10.9766 64.8018 11.1491Q64.4178 11.3745 64.0981 11.6696Q63.6974 12.0395 63.3978 12.5188L63.3978 5.06512L60.1478 5.06512ZM84.0117 22.3811L84.0122 22.3816Q85.2603 23.6551 87.8077 23.6551C88.2584 23.6551 88.7177 23.6031 89.1857 23.4991C89.6711 23.3951 90.0697 23.2565 90.3817 23.0831L89.8877 20.6911C89.6104 20.7605 89.3417 20.8298 89.0817 20.8991C88.8217 20.9511 88.5704 20.9771 88.3277 20.9771C87.5131 20.9771 86.9237 20.7691 86.5597 20.3531C86.1957 19.9371 86.0137 19.3131 86.0137 18.4811L86.0137 13.1251L92.0059 13.1251L92.0059 18.6631Q92.0059 21.0512 93.1975 22.3222Q93.2254 22.352 93.2539 22.3811C94.0859 23.2305 95.3513 23.6551 97.0499 23.6551C97.5006 23.6551 97.9599 23.6031 98.4279 23.4991C98.9133 23.3951 99.3119 23.2565 99.6239 23.0831L99.1299 20.6911C98.8526 20.7605 98.5839 20.8298 98.3239 20.8991C98.0639 20.9511 97.8126 20.9771 97.5699 20.9771C96.7553 20.9771 96.1659 20.7691 95.8019 20.3531C95.4379 19.9371 95.2559 19.3131 95.2559 18.4811L95.2559 13.1251L99.1039 13.1251L99.1039 10.6811L95.2559 10.6811L95.2559 6.88512L92.0059 6.88512L92.0059 10.6811L86.0137 10.6811L86.0137 6.88512L82.7637 6.88512L82.7637 10.6811L80.3197 10.6811L80.3197 13.1251L82.7637 13.1251L82.7637 18.6631Q82.7637 21.0512 83.9553 22.3222Q83.9832 22.352 84.0117 22.3811ZM53.7601 23.6551C52.4255 23.6551 51.2641 23.3865 50.2761 22.8491Q49.5637 22.4492 49.0075 21.893L49.0074 21.8929Q48.4066 21.2921 47.9881 20.5091Q47.1821 19.0011 47.1821 16.9731Q47.1821 14.9451 47.9881 13.4891Q48.4086 12.716 49.0131 12.1339Q49.5673 11.6002 50.2761 11.2271Q51.7581 10.4211 53.7601 10.4211Q54.0143 10.4211 54.2673 10.438L54.2673 10.438Q55.2309 10.5022 56.1781 10.8111C56.9755 11.0711 57.6341 11.4351 58.1541 11.9031L57.1921 14.1651Q56.9098 13.9154 56.5957 13.7155Q56.1578 13.4368 55.6581 13.2551Q54.8261 12.9431 54.0461 12.9431Q52.783 12.9431 51.9411 13.5386Q51.6565 13.7399 51.4201 14.0091Q50.5101 15.0491 50.5101 16.9991Q50.5101 18.9231 51.4201 20.0411Q51.6788 20.3429 51.9951 20.5613Q52.8232 21.1331 54.0461 21.1331Q54.8001 21.1331 55.6581 20.8211C56.2301 20.6131 56.7415 20.3011 57.1921 19.8851L58.1541 22.1731C57.6341 22.6238 56.9668 22.9878 56.1521 23.2651Q54.9561 23.6551 53.7601 23.6551ZM75.3568 23.3951L75.3568 10.6811L78.6068 10.6811L78.6068 23.3951L75.3568 23.3951ZM101.204 10.6811L101.204 23.3951L104.454 23.3951L104.454 10.6811L101.204 10.6811Z" fill="rgb(51,51,51)" fill-rule="evenodd" />
			</g>
		</g>
	</g>
</svg>
